HIERARCHY
ROOT Hips
{
	OFFSET 0.000000 95.729000 0.000000
	CHANNELS 6 Xposition Yposition Zposition Yrotation Xrotation Zrotation
	JOINT RightUpLeg
	{
		OFFSET -9.625000 -1.639000 0.000000
		CHANNELS 3 Yrotation Xrotation Zrotation
		JOINT RightLeg
		{
			OFFSET 0.000000 -41.481000 0.000000
			CHANNELS 3 Yrotation Xrotation Zrotation
			JOINT RightFoot
			{
				OFFSET 0.000000 -43.120000 0.000000
				CHANNELS 3 Yrotation Xrotation Zrotation
				End Site
				{
					OFFSET 0.000000 -7.850000 17.850000
				}
			}
		}
	}
	JOINT LeftUpLeg
	{
		OFFSET 9.625000 -1.639000 0.000000
		CHANNELS 3 Yrotation Xrotation Zrotation
		JOINT LeftLeg
		{
			OFFSET 0.000000 -43.120000 0.000000
			CHANNELS 3 Yrotation Xrotation Zrotation
			JOINT LeftFoot
			{
				OFFSET 0.000000 -43.120000 0.000000
				CHANNELS 3 Yrotation Xrotation Zrotation
				End Site
				{
					OFFSET 0.000000 -7.850000 17.850000
				}
			}
		}
	}
	JOINT Spine
	{
		OFFSET 0.000000 16.395000 0.000000
		CHANNELS 3 Yrotation Xrotation Zrotation
		JOINT Spine1
		{
			OFFSET 0.000000 10.023000 0.000000
			CHANNELS 3 Yrotation Xrotation Zrotation
			JOINT Spine2
			{
				OFFSET 0.000000 10.437000 0.000000
				CHANNELS 3 Yrotation Xrotation Zrotation
				JOINT Spine3
				{
					OFFSET 0.000000 10.023000 0.000000
					CHANNELS 3 Yrotation Xrotation Zrotation
					JOINT Neck
					{
						OFFSET 0.000000 10.713000 0.000000
						CHANNELS 3 Yrotation Xrotation Zrotation
						JOINT Head
						{
							OFFSET 0.000000 9.720000 0.000000
							CHANNELS 3 Yrotation Xrotation Zrotation
							End Site
							{
								OFFSET 0.000000 16.450000 0.000000
							}
						}
					}
					JOINT RightShoulder
					{
						OFFSET -3.275000 7.142000 0.000000
						CHANNELS 3 Yrotation Xrotation Zrotation
						JOINT RightArm
						{
							OFFSET -13.100000 0.000000 0.000000
							CHANNELS 3 Yrotation Xrotation Zrotation
							JOINT RightForeArm
							{
								OFFSET -27.250000 0.000000 0.000000
								CHANNELS 3 Yrotation Xrotation Zrotation
								JOINT RightHand
								{
									OFFSET -26.750000 0.000000 0.000000
									CHANNELS 3 Yrotation Xrotation Zrotation
									End Site
									{
										OFFSET -3.479000 0.532000 0.778000
									}
								}
							}
						}
					}
					JOINT LeftShoulder
					{
						OFFSET 3.275000 7.142000 0.000000
						CHANNELS 3 Yrotation Xrotation Zrotation
						JOINT LeftArm
						{
							OFFSET 13.100000 0.000000 0.000000
							CHANNELS 3 Yrotation Xrotation Zrotation
							JOINT LeftForeArm
							{
								OFFSET 27.250000 0.000000 0.000000
								CHANNELS 3 Yrotation Xrotation Zrotation
								JOINT LeftHand
								{
									OFFSET 26.750000 0.000000 0.000000
									CHANNELS 3 Yrotation Xrotation Zrotation
									End Site
									{
										OFFSET 3.479000 0.532000 0.778000
									}
								}
							}
						}
					}
				}
			}
		}
	}
}
MOTION
Frames: 28
Frame Time: 0.010000
46.2 76.64 31.99 -103.35 34.1 12.55 20.21 -69.2 -14.08 0.0 88.46 0.0 -16.68 -26.3 -1.21 83.08 -80.17 -89.97 -0.0 71.46 0.0 4.6 -5.88 -0.94 -19.58 -22.94 3.02 -4.45 -5.31 -0.04 -6.96 -7.96 0.13 0.56 2.23 0.41 0.8 15.37 0.63 21.55 34.56 13.33 86.56 35.61 41.97 64.85 -27.62 4.81 -1.34 25.97 -14.21 17.16 9.09 -30.08 64.58 55.33 14.98 -17.67 1.98 -60.72 -36.3 -14.48 6.41 -20.88 81.99 10.94
46.2 76.75 31.98 -103.51 34.07 12.45 20.03 -69.03 -13.84 -0.0 88.21 -0.0 -16.54 -26.31 -1.29 82.11 -80.19 -88.9 -0.0 71.29 -0.0 4.63 -5.85 -0.95 -19.5 -22.89 3.02 -4.44 -5.3 -0.04 -6.94 -7.95 0.14 0.55 2.23 0.4 0.79 15.19 0.62 21.31 34.65 13.18 85.93 36.1 40.77 65.23 -27.98 3.51 1.55 26.79 -15.02 17.55 9.12 -32.99 63.83 55.47 14.29 -17.63 2.08 -60.76 -36.2 -14.37 6.35 -19.35 81.87 12.51
46.2 76.84 31.97 -103.67 34.06 12.31 19.96 -68.87 -13.65 -0.0 87.97 0.0 -16.46 -26.3 -1.33 81.21 -80.29 -87.93 -0.0 71.12 -0.0 4.66 -5.86 -0.99 -19.43 -22.86 3.04 -4.42 -5.3 -0.03 -6.92 -7.94 0.15 0.55 2.23 0.4 0.78 15.1 0.61 21.15 34.7 13.07 85.79 36.46 39.67 64.66 -29.09 2.3 6.82 27.44 -18.27 16.39 7.72 -30.41 63.27 55.55 13.77 -17.6 2.15 -60.8 -36.2 -14.23 6.24 -21.66 81.93 10.18
46.22 76.96 32.0 -103.78 34.11 12.21 19.97 -68.79 -13.6 -0.0 87.7 -0.0 -16.33 -26.29 -1.38 80.54 -80.41 -87.24 0.0 70.87 0.0 4.69 -5.83 -1.0 -19.38 -22.86 3.09 -4.41 -5.3 -0.02 -6.91 -7.94 0.17 0.55 2.23 0.4 0.78 15.0 0.6 21.08 34.74 13.04 86.01 36.99 38.56 63.24 -30.16 0.98 11.96 26.89 -20.41 15.48 7.18 -31.64 63.15 55.46 13.58 -17.56 2.28 -60.74 -36.48 -14.13 6.04 -21.28 81.94 10.47
46.22 77.06 32.03 -103.77 34.22 12.13 19.88 -68.77 -13.53 -0.0 87.45 -0.0 -16.23 -26.31 -1.38 80.19 -80.56 -86.99 0.0 70.65 0.0 4.7 -5.81 -0.99 -19.4 -22.91 3.16 -4.42 -5.31 -0.0 -6.91 -7.95 0.2 0.55 2.23 0.4 0.78 14.92 0.62 21.24 34.7 13.19 85.66 37.39 37.07 61.4 -31.35 0.47 17.17 25.76 -22.94 14.33 6.96 -26.76 63.32 55.25 13.58 -17.98 2.12 -60.93 -36.4 -14.2 6.28 -20.56 81.82 11.45
46.19 77.11 32.06 -103.74 34.3 12.03 19.79 -68.76 -13.41 0.0 87.32 0.0 -16.23 -26.31 -1.32 80.19 -80.66 -87.04 0.0 70.56 0.0 4.71 -5.84 -0.9 -19.45 -22.94 3.25 -4.43 -5.31 0.02 -6.94 -7.95 0.23 0.56 2.22 0.41 0.79 14.69 0.63 21.47 34.68 13.38 84.83 37.61 35.27 58.4 -33.32 0.35 22.36 25.16 -24.44 13.92 6.41 -23.74 63.39 55.16 13.45 -17.85 2.04 -60.92 -36.77 -14.33 6.33 -19.11 82.04 12.93
46.11 77.12 32.09 -103.68 34.31 11.96 19.68 -68.68 -13.28 -0.0 87.26 -0.0 -16.26 -26.37 -1.31 80.08 -80.66 -86.97 -0.0 70.59 -0.0 4.67 -5.87 -0.83 -19.5 -22.94 3.32 -4.44 -5.31 0.03 -6.96 -7.94 0.25 0.57 2.21 0.41 0.8 14.5 0.62 21.72 34.69 13.5 84.06 37.73 33.98 55.69 -34.78 0.44 25.96 24.23 -25.01 11.89 5.96 -29.48 63.19 55.17 13.1 -17.74 1.99 -60.8 -36.77 -14.31 6.37 -18.88 82.05 13.25
46.02 77.1 32.1 -103.57 34.29 11.94 19.35 -68.6 -13.01 0.0 87.26 0.0 -16.31 -26.47 -1.39 80.07 -80.59 -87.0 -0.0 70.69 -0.0 4.61 -5.89 -0.77 -19.58 -22.92 3.36 -4.46 -5.3 0.04 -6.99 -7.93 0.26 0.58 2.21 0.4 0.8 14.4 0.6 21.84 34.73 13.47 83.72 37.77 33.5 53.67 -36.06 0.22 27.79 20.7 -26.93 12.26 5.69 -27.8 62.83 55.21 12.6 -17.69 2.05 -60.59 -36.62 -14.22 6.33 -19.12 82.06 12.97
45.93 77.06 32.11 -103.45 34.26 11.93 19.2 -68.51 -12.88 -0.0 87.32 -0.0 -16.42 -26.59 -1.31 80.23 -80.53 -87.22 -0.0 70.85 0.0 4.56 -5.91 -0.71 -19.66 -22.91 3.39 -4.48 -5.3 0.04 -7.02 -7.92 0.27 0.58 2.21 0.4 0.8 14.35 0.58 21.83 34.77 13.4 80.93 38.11 29.96 51.29 -39.74 1.89 28.95 17.59 -26.04 14.72 4.98 -27.97 62.33 55.3 12.01 -17.46 2.09 -60.4 -36.52 -13.96 6.22 -19.09 82.05 12.98
45.83 77.02 32.12 -103.35 34.22 11.92 19.05 -68.46 -12.72 0.0 87.39 0.0 -16.5 -26.58 -1.54 80.21 -80.49 -87.26 0.0 70.98 0.0 4.54 -5.97 -0.65 -19.73 -22.89 3.42 -4.5 -5.29 0.05 -7.05 -7.9 0.28 0.59 2.2 0.39 0.8 14.21 0.54 21.8 34.86 13.24 80.0 38.04 28.94 49.2 -41.94 2.36 28.76 12.6 -24.86 17.17 3.61 -28.83 61.87 55.41 11.46 -17.7 2.28 -60.14 -36.48 -14.21 6.35 -18.93 82.04 13.14
45.77 77.01 32.11 -103.3 34.23 11.88 18.68 -68.41 -12.38 -0.0 87.35 -0.0 -16.54 -26.75 -1.72 80.39 -80.52 -87.46 -0.0 71.08 -0.0 4.52 -5.98 -0.7 -19.77 -22.88 3.46 -4.51 -5.29 0.06 -7.07 -7.9 0.29 0.6 2.2 0.38 0.8 14.02 0.51 21.98 34.93 13.18 79.25 37.91 28.05 47.25 -44.09 3.06 28.96 10.16 -23.01 17.56 -0.71 -30.51 61.72 55.43 11.26 -18.1 2.34 -60.11 -36.36 -14.47 6.59 -19.45 82.02 12.67
45.75 77.01 32.1 -103.28 34.26 11.82 18.55 -68.39 -12.21 -0.0 87.3 -0.0 -16.57 -26.85 -1.79 80.59 -80.53 -87.65 -0.0 71.11 -0.0 4.52 -6.0 -0.72 -19.79 -22.9 3.51 -4.52 -5.29 0.07 -7.08 -7.89 0.31 0.62 2.19 0.39 0.82 13.87 0.5 22.55 34.89 13.45 79.14 37.7 27.49 44.8 -46.35 4.42 24.55 -1.33 -21.77 25.31 1.28 -29.54 61.42 55.43 10.82 -18.17 2.38 -60.02 -36.51 -14.48 6.57 -18.42 81.97 13.66
45.71 77.03 32.16 -103.28 34.34 11.74 18.6 -68.41 -12.21 -0.0 87.25 -0.0 -16.61 -26.86 -1.77 80.9 -80.57 -88.0 0.0 71.1 0.0 4.56 -6.02 -0.67 -19.81 -22.92 3.58 -4.52 -5.29 0.08 -7.09 -7.9 0.33 0.65 2.18 0.39 0.85 13.69 0.49 23.24 34.82 13.78 79.12 37.77 27.25 43.05 -48.15 5.34 19.47 -7.89 -19.39 28.21 1.19 -29.68 61.42 55.32 10.67 -18.31 2.45 -60.0 -36.7 -14.46 6.56 -18.02 81.95 14.11
45.64 77.04 32.21 -103.35 34.38 11.64 18.5 -68.36 -12.11 0.0 87.19 0.0 -16.59 -26.9 -1.74 80.89 -80.55 -87.97 0.0 71.12 0.0 4.63 -6.07 -0.56 -19.79 -22.92 3.62 -4.52 -5.29 0.09 -7.08 -7.89 0.35 0.66 2.17 0.39 0.86 13.5 0.48 23.66 34.81 13.94 78.2 38.04 26.55 41.67 -49.65 6.98 13.89 -13.14 -15.57 30.89 2.41 -29.78 61.23 55.31 10.34 -18.23 2.51 -59.87 -36.88 -14.48 6.41 -17.17 82.09 15.06
45.58 77.06 32.28 -103.52 34.4 11.52 18.46 -68.33 -12.04 0.0 87.14 0.0 -16.62 -26.85 -1.66 80.9 -80.54 -87.9 0.0 71.16 0.0 4.64 -6.08 -0.52 -19.71 -22.91 3.64 -4.5 -5.29 0.1 -7.06 -7.89 0.37 0.67 2.17 0.39 0.86 13.42 0.47 23.77 34.82 13.97 77.77 38.33 26.86 39.06 -49.57 9.61 8.66 -13.53 -11.99 27.76 2.2 -29.79 60.87 55.32 9.92 -18.29 2.46 -60.04 -36.72 -14.28 6.5 -16.92 82.26 15.36
45.51 77.09 32.32 -103.71 34.4 11.4 18.27 -68.27 -11.86 0.0 87.08 0.0 -16.54 -26.81 -1.64 80.77 -80.53 -87.68 -0.0 71.21 0.0 4.64 -6.08 -0.48 -19.61 -22.88 3.66 -4.48 -5.29 0.11 -7.03 -7.89 0.38 0.69 2.15 0.38 0.87 12.77 0.41 24.02 35.0 13.85 77.78 38.81 27.9 37.84 -48.17 11.29 3.61 -10.31 -8.72 25.03 3.11 -31.08 60.47 55.34 9.61 -18.25 2.56 -60.09 -36.51 -14.16 6.42 -17.24 82.35 15.02
45.47 77.1 32.37 -103.97 34.43 11.29 18.35 -68.28 -11.9 0.0 87.06 0.0 -16.43 -26.74 -1.6 80.89 -80.49 -87.67 0.0 71.25 0.0 4.7 -6.08 -0.42 -19.46 -22.87 3.64 -4.45 -5.29 0.11 -6.99 -7.89 0.38 0.69 2.15 0.37 0.87 12.66 0.38 23.84 35.09 13.65 78.17 39.05 29.12 37.15 -45.92 13.1 -0.33 -6.59 -6.33 23.09 4.68 -34.86 60.07 55.4 9.34 -18.2 2.67 -60.14 -36.4 -14.12 6.38 -18.24 82.46 13.97
45.47 77.14 32.41 -104.23 34.51 11.23 18.44 -68.31 -12.0 -0.0 86.99 -0.0 -16.27 -26.7 -1.67 81.09 -80.46 -87.74 0.0 71.2 0.0 4.77 -6.07 -0.4 -19.31 -22.89 3.62 -4.41 -5.3 0.11 -6.93 -7.92 0.38 0.68 2.15 0.36 0.85 12.7 0.38 23.52 35.15 13.46 79.15 39.49 31.66 37.81 -43.92 13.67 -2.85 -4.43 -4.57 19.26 5.51 -35.44 59.94 55.41 9.33 -18.4 2.89 -60.13 -36.31 -14.01 6.35 -18.23 82.35 13.98
45.48 77.19 32.44 -104.47 34.65 11.22 18.66 -68.4 -12.23 -0.0 86.9 -0.0 -16.0 -26.65 -1.85 81.44 -80.4 -87.97 -0.0 71.1 -0.0 4.94 -6.08 -0.39 -19.15 -22.96 3.58 -4.37 -5.32 0.11 -6.87 -7.95 0.38 0.67 2.16 0.36 0.84 12.82 0.39 23.09 35.17 13.3 79.89 39.42 33.81 38.47 -42.85 14.51 -4.6 -1.75 -3.03 13.59 6.57 -30.15 59.97 55.46 9.49 -18.49 2.91 -60.15 -36.38 -14.11 6.44 -18.05 82.33 14.16
45.53 77.25 32.49 -104.7 34.78 11.22 19.01 -68.45 -12.54 0.0 86.76 0.0 -16.05 -26.71 -1.79 81.75 -80.34 -88.19 0.0 70.93 -0.0 5.08 -6.05 -0.4 -19.0 -23.03 3.54 -4.33 -5.34 0.11 -6.81 -7.99 0.37 0.65 2.16 0.36 0.83 12.97 0.41 22.75 35.14 13.25 81.17 39.26 36.12 39.13 -42.07 13.8 -5.45 -0.12 -0.76 7.11 10.83 -26.21 60.23 55.46 9.9 -18.63 2.9 -60.23 -36.53 -14.26 6.66 -17.57 82.35 14.63
45.6 77.3 32.57 -104.8 34.85 11.24 19.41 -68.51 -12.93 -0.0 86.69 -0.0 -15.98 -26.7 -1.81 81.86 -80.29 -88.3 -0.0 70.75 -0.0 5.21 -6.0 -0.4 -18.92 -23.07 3.52 -4.31 -5.35 0.1 -6.78 -8.01 0.36 0.64 2.17 0.37 0.82 13.15 0.44 22.52 35.1 13.25 82.68 39.03 38.56 40.39 -40.87 14.05 -5.92 1.76 -0.14 3.34 16.71 -24.82 60.6 55.4 10.45 -18.65 2.83 -60.28 -36.68 -14.37 6.76 -18.86 82.39 13.28
45.66 77.33 32.61 -105.01 35.02 11.35 20.37 -68.61 -13.77 -0.0 86.66 -0.0 -15.88 -26.74 -1.87 82.61 -80.12 -88.94 0.0 70.63 0.0 5.34 -5.99 -0.43 -18.76 -23.18 3.44 -4.27 -5.39 0.09 -6.71 -8.06 0.33 0.63 2.18 0.37 0.81 13.31 0.46 22.4 35.05 13.28 84.03 38.97 40.85 43.44 -38.8 14.7 -6.65 3.3 -1.45 3.63 19.59 -22.9 60.97 55.38 11.0 -18.68 2.75 -60.27 -36.78 -14.46 6.84 -16.9 82.49 15.28
45.7 77.35 32.65 -105.06 35.06 11.44 20.84 -68.61 -14.22 -0.0 86.64 -0.0 -15.84 -26.77 -1.93 82.7 -80.03 -89.04 -0.0 70.52 -0.0 5.39 -5.95 -0.46 -18.71 -23.22 3.38 -4.25 -5.4 0.07 -6.68 -8.09 0.31 0.6 2.2 0.39 0.81 13.98 0.55 22.15 34.83 13.47 84.58 39.0 41.85 46.03 -37.18 15.06 -6.51 7.14 -1.89 3.04 21.11 -22.85 61.32 55.33 11.58 -18.7 2.69 -60.32 -36.78 -14.46 6.88 -16.91 82.59 15.26
45.74 77.37 32.66 -105.08 35.08 11.49 21.1 -68.64 -14.45 0.0 86.63 0.0 -15.78 -26.71 -2.06 82.53 -80.02 -88.89 0.0 70.42 0.0 5.42 -6.0 -0.52 -18.68 -23.24 3.35 -4.25 -5.41 0.07 -6.67 -8.1 0.3 0.59 2.21 0.41 0.81 14.34 0.6 22.08 34.7 13.6 86.18 39.16 44.64 49.51 -34.9 13.26 -6.72 7.39 -2.89 4.03 21.99 -21.54 61.63 55.33 12.1 -18.71 2.63 -60.37 -36.75 -14.46 6.92 -17.22 82.67 14.94
45.79 77.38 32.66 -105.11 35.08 11.6 21.62 -68.64 -14.9 -0.0 86.64 -0.0 -15.76 -26.65 -2.15 82.41 -79.91 -88.75 0.0 70.31 0.0 5.45 -5.99 -0.56 -18.63 -23.26 3.28 -4.23 -5.41 0.05 -6.65 -8.11 0.27 0.57 2.21 0.42 0.81 14.66 0.65 22.05 34.57 13.75 86.96 39.09 45.85 52.37 -34.47 12.49 -5.74 9.95 -3.25 3.68 21.72 -22.55 61.92 55.29 12.59 -18.71 2.68 -60.29 -36.75 -14.46 6.85 -17.46 82.75 14.67
45.85 77.39 32.69 -105.14 35.08 11.65 22.05 -68.64 -15.28 -0.0 86.66 -0.0 -15.68 -26.63 -2.2 82.39 -79.8 -88.73 0.0 70.23 0.0 5.53 -5.95 -0.58 -18.6 -23.27 3.24 -4.23 -5.42 0.04 -6.63 -8.12 0.26 0.56 2.22 0.43 0.81 14.93 0.69 21.99 34.45 13.87 87.57 38.95 46.66 54.89 -33.11 11.48 -4.8 12.92 -4.27 4.14 21.77 -23.01 62.2 55.24 13.02 -18.67 2.7 -60.29 -36.76 -14.47 6.81 -17.45 82.76 14.67
45.91 77.4 32.7 -105.09 35.03 11.75 22.39 -68.61 -15.6 -0.0 86.69 -0.0 -15.65 -26.58 -2.21 82.11 -79.63 -88.43 0.0 70.12 0.0 5.6 -5.9 -0.59 -18.61 -23.26 3.18 -4.23 -5.41 0.03 -6.63 -8.12 0.24 0.55 2.23 0.44 0.81 15.14 0.74 21.88 34.35 13.96 87.88 38.96 46.94 58.22 -31.35 10.31 -4.27 14.52 -5.97 5.18 21.34 -23.68 62.4 55.21 13.3 -18.63 2.68 -60.3 -36.78 -14.51 6.82 -17.44 82.82 14.68
45.98 77.41 32.69 -105.03 34.98 11.8 22.55 -68.6 -15.72 -0.0 86.7 -0.0 -15.65 -26.51 -2.28 81.88 -79.54 -88.2 0.0 70.04 0.0 5.55 -5.84 -0.67 -18.64 -23.24 3.16 -4.23 -5.41 0.02 -6.64 -8.11 0.23 0.54 2.23 0.44 0.81 15.32 0.77 21.72 34.3 13.98 88.0 38.89 46.93 60.38 -30.41 8.96 -2.42 18.14 -7.28 5.55 20.36 -25.56 62.54 55.1 13.48 -18.64 2.73 -60.34 -36.73 -14.49 6.82 -17.49 82.86 14.65
